<?xml version="1.0" encoding="utf-8"?>
<!-- Generator: Adobe Illustrator 21.0.0, SVG Export Plug-In . SVG Version: 6.00 Build 0)  -->
<svg version="1.1" id="Capa_1" xmlns="http://www.w3.org/2000/svg" xmlns:xlink="http://www.w3.org/1999/xlink" x="0px" y="0px"
	 viewBox="0 0 512 512" style="enable-background:new 0 0 512 512;" xml:space="preserve">
<style type="text/css">
	.st0{fill:#E6E6E6;}
	.st1{fill:#FFCDA8;}
	.st2{fill:#EAB796;}
	.st3{fill:#29C566;}
	.st4{fill:#FFFFFF;}
</style>
<g>
	<circle class="st0" cx="256" cy="256" r="256"/>
	<path class="st1" d="M456.2,415.5c-20.5,25.7-45.9,47.4-74.8,63.7c-18.7,10.6-38.9,18.8-60.2,24.4h-10.7c-21.3,0-42.3-5.1-61.3-15
		l-111.7-58.3L113,416.8L86.2,402l135.3-6.3c15.3,0,11.5-37.5,11.5-52.8l73.2-126.9l90.9,90.9c12.4,12.4,22.1,27.1,28.7,43
		s10.1,33.1,10.1,50.7L456.2,415.5z"/>
	<g>
		<path class="st2" d="M381.5,479.2c-18.7,10.6-38.9,18.8-60.2,24.4h-10.7c-21.3,0-42.3-5.1-61.3-15l-111.7-58.3L113,416.8
			l156.7,11.8C269.7,428.6,300,479.2,381.5,479.2C381.5,479.2,381.5,479.2,381.5,479.2z"/>
		<path class="st2" d="M86.7,165.1H71.4c-0.8,0-1.5-0.1-2.3-0.1c-8,0-16,3.1-22.2,9.2c-12.2,12.2-12.2,32.1,0,44.3l17.2,17.3
			c-6.7,0.8-13.3,3.8-18.5,8.9c-12.2,12.2-12.2,32.1,0,44.3l9.1,9.1c2.6,2.6,5.6,4.7,8.8,6.2c0.2-0.1,0.4-0.3,0.6-0.4v0.7
			c-0.2-0.1-0.4-0.2-0.6-0.3c-1.5,1-3,2.2-4.3,3.6c-12.2,12.2-12.2,32.1,0,44.3l9.1,9.1c1,1,2,1.9,3.1,2.7v-24h15.3
			C86.7,339.9,86.7,165.1,86.7,165.1z"/>
	</g>
	<path class="st3" d="M278.5,0H99.1C83.8,0,71.4,12.4,71.4,27.7V401c0,15.3,12.4,27.7,27.7,27.7h170.6
		c-14.8-18.4,9.9-42.6,16.6-64.1l5.2-62.6l3.6-43.5l11.1,11.1V27.7C306.2,12.4,293.8,0,278.5,0z"/>
	<path class="st2" d="M347.5,294.2l-27.4-27.4v-36.7l-13.9-13.9v53.3l33.1,33.1c3.7,3.7,10,1.1,10-4.1
		C349.2,296.8,348.6,295.3,347.5,294.2z"/>
	<path class="st4" d="M90.8,162.6V124c0-25,16.5-34.3,38.1-34.3c21.3,0,37.8,9.3,37.8,34.3v38.6c0,25-16.5,34.3-37.8,34.3
		C107.3,197,90.8,187.6,90.8,162.6z M144.1,124c0-9.9-5.9-14.4-15.2-14.4S114,114.2,114,124v38.6c0,9.9,5.6,14.4,14.9,14.4
		s15.2-4.5,15.2-14.4V124z M249.5,91c0,1.6-0.3,3.2-1.1,4.8l-95.8,193.3c-1.6,3.7-5.9,5.9-10.4,5.9c-7.5,0-12.5-6.1-12.5-11.7
		c0-1.6,0.5-3.2,1.1-4.5l95.8-194.1c1.9-3.7,5.6-5.6,9.6-5.6C242.3,79,249.5,83.8,249.5,91z M210.9,250.7v-38.6
		c0-25,16.5-34.3,38.1-34.3c21.3,0,37.8,9.3,37.8,34.3v38.6c0,25.3-16.5,34.3-37.8,34.3C227.4,285.1,210.9,276,210.9,250.7z
		 M264.1,212.1c0-9.9-5.9-14.4-15.2-14.4c-9.3,0-14.9,4.5-14.9,14.4v38.6c0,9.9,5.6,14.4,14.9,14.4c9.3,0,15.2-4.5,15.2-14.4V212.1z
		"/>
	<path class="st4" d="M241.9,216.4v3h-13.5v-1.6c-5.2,1.6-10.2,4.5-14.3,8.6c-1.7,1.7-3.3,3.6-4.6,5.6v3.7h-2.1
		c-2.3,4.8-3.5,10-3.5,15.2c0,8.9,3.4,17.8,10.2,24.5l39.9,39.9c10.5,10.5,13.6,26.5,7.2,39.9c-1.4,3-2.7,6.1-3.6,9.3h-30.6v0h30.6
		c-6.7,21.6-2.7,45.7,12.2,64.1h5.9c16.8,0,30.5-13.6,30.6-30.3V269.4l-11.1-11.1l-20.8-20.8v11.9h-13.5v-13.5h11.9l-9.6-9.6
		C257.2,220.4,249.6,217.1,241.9,216.4"/>
	<path class="st3" d="M286.3,364.5c-6.7,21.6-31.4,45.8-16.6,64.1h-18.8c-14.8-18.4-18.9-42.6-12.2-64.1c1-3.1,2.2-6.2,3.6-9.3
		c6.4-13.4,3.3-29.4-7.2-39.9l-39.9-39.9c-6.8-6.8-10.2-15.7-10.2-24.5c0-8.9,3.4-17.8,10.2-24.5c13.6-13.6,35.5-13.6,49,0l32,32
		l11.1,11.1l4.1,32.4L286.3,364.5z"/>
	<path class="st1" d="M295.1,258.4l-32-32c-13.5-13.5-35.5-13.5-49,0c-6.8,6.8-10.2,15.6-10.2,24.5c0,8.9,3.4,17.8,10.2,24.5
		l39.9,39.9c10.5,10.5,13.6,26.5,7.2,39.9c-1.4,3-2.7,6.1-3.6,9.3c-6.7,21.6-2.7,45.7,12.2,64.1l13.5,14.7
		c15.3,0,40.8-19.2,40.8-34.5l-17.7-139.4L295.1,258.4z"/>
	<path class="st4" d="M255.3,236.8c-8.2-8.2-21.4-8.2-29.6,0s-8.2,21.4,0,29.6s15.2,2,23.4-6.2C257.3,252.1,263.5,245,255.3,236.8z"
		/>
</g>
</svg>
